<svg width="13" height="12" viewBox="0 0 13 12" fill="none" xmlns="http://www.w3.org/2000/svg">
<path d="M5.48968 8.1L9.14081 4.575L8.41576 3.875L5.48968 6.7L4.01369 5.275L3.28865 5.975L5.48968 8.1ZM2.58949 10.5C2.30465 10.5 2.06081 10.4021 1.85797 10.2063C1.65513 10.0104 1.55371 9.775 1.55371 9.5V2.5C1.55371 2.225 1.65513 1.98958 1.85797 1.79375C2.06081 1.59792 2.30465 1.5 2.58949 1.5H9.83996C10.1248 1.5 10.3686 1.59792 10.5715 1.79375C10.7743 1.98958 10.8757 2.225 10.8757 2.5V9.5C10.8757 9.775 10.7743 10.0104 10.5715 10.2063C10.3686 10.4021 10.1248 10.5 9.83996 10.5H2.58949ZM2.58949 9.5H9.83996V2.5H2.58949V9.5Z" fill="#A2A2A2"/>
</svg>
