<svg width="20" height="20" viewBox="0 0 20 20" fill="none" xmlns="http://www.w3.org/2000/svg">
<path d="M9.99998 12.5C10.6944 12.5 11.2847 12.2569 11.7708 11.7708C12.2569 11.2847 12.5 10.6944 12.5 9.99999C12.5 9.30555 12.2569 8.71527 11.7708 8.22916C11.2847 7.74305 10.6944 7.49999 9.99998 7.49999C9.30553 7.49999 8.71526 7.74305 8.22915 8.22916C7.74303 8.71527 7.49998 9.30555 7.49998 9.99999C7.49998 10.6944 7.74303 11.2847 8.22915 11.7708C8.71526 12.2569 9.30553 12.5 9.99998 12.5ZM9.99998 14.1667C8.8472 14.1667 7.86456 13.7604 7.05206 12.9479C6.23956 12.1354 5.83331 11.1528 5.83331 9.99999C5.83331 8.84722 6.23956 7.86458 7.05206 7.05208C7.86456 6.23958 8.8472 5.83333 9.99998 5.83333C11.1528 5.83333 12.1354 6.23958 12.9479 7.05208C13.7604 7.86458 14.1666 8.84722 14.1666 9.99999C14.1666 11.1528 13.7604 12.1354 12.9479 12.9479C12.1354 13.7604 11.1528 14.1667 9.99998 14.1667ZM4.16665 10.8333H0.833313V9.16666H4.16665V10.8333ZM19.1666 10.8333H15.8333V9.16666H19.1666V10.8333ZM9.16665 4.16666V0.833328H10.8333V4.16666H9.16665ZM9.16665 19.1667V15.8333H10.8333V19.1667H9.16665ZM5.33331 6.45833L3.22915 4.43749L4.41665 3.20833L6.41665 5.29166L5.33331 6.45833ZM15.5833 16.7917L13.5625 14.6875L14.6666 13.5417L16.7708 15.5625L15.5833 16.7917ZM13.5416 5.33333L15.5625 3.22916L16.7916 4.41666L14.7083 6.41666L13.5416 5.33333ZM3.20831 15.5833L5.31248 13.5625L6.45831 14.6667L4.43748 16.7708L3.20831 15.5833Z" fill="white"/>
</svg>
