<svg width="280" height="291" viewBox="0 0 280 291" fill="none" xmlns="http://www.w3.org/2000/svg">
<circle cx="124" cy="124" r="123.5" fill="url(#paint0_linear_28_273)" stroke="#E9E9E9"/>
<path d="M247.5 117C241.5 293.5 7.5 285 1 127L73.5 130L185.5 150C200.333 151.833 242.128 156.5 247.5 117Z" fill="url(#paint1_linear_28_273)"/>
<path d="M0 127C111 130 92.5 283.5 164.5 291C145.7 276.2 142.667 243.5 143.5 229C178.833 229.167 249 206.9 247 116.5C198.5 203 134 38.9997 0 127Z" fill="url(#paint2_radial_28_273)"/>
<path d="M205.02 84.8503L205 84.5C237.8 86.5 246.667 105.333 247 114.5C206.87 117.281 206.01 102.204 205.02 84.8503Z" fill="url(#paint3_radial_28_273)"/>
<path d="M248 114C261.5 109.5 289.5 102 276.5 73C249.3 83.8 246.167 104.833 248 114Z" fill="url(#paint4_radial_28_273)"/>
<circle cx="7.5" cy="7.5" r="7.5" transform="matrix(-1 0 0 1 95.5 129)" fill="#1B1B1B"/>
<circle cx="4" cy="4" r="4" transform="matrix(-1 0 0 1 94.5 131)" fill="white"/>
<g filter="url(#filter0_d_28_273)">
<g filter="url(#filter1_f_28_273)">
<rect x="103.618" y="40.1026" width="30.5359" height="21.1604" transform="rotate(-15.9313 103.618 40.1026)" fill="white" stroke="#2BBFFF"/>
<path d="M104.58 40.6376L121.906 48.5444L132.856 32.5663" stroke="#2BBFFF"/>
<path d="M109.551 59.605L116.872 46.4358M138.237 51.4167L125.068 44.0963" stroke="#2BBFFF"/>
</g>
<g filter="url(#filter2_f_28_273)">
<rect x="144.599" y="52.0033" width="24.2806" height="16.7647" transform="rotate(20.3985 144.599 52.0033)" fill="white" stroke="#2BBFFF"/>
<path d="M144.052 52.6476L151.637 66.2529L166.595 61.0306" stroke="#2BBFFF"/>
<path d="M138.906 67.9232L150.139 62.7799M161.833 76.449L156.69 65.2158" stroke="#2BBFFF"/>
</g>
<g filter="url(#filter3_f_28_273)">
<rect x="118.442" y="85.2473" width="18.7051" height="12.8468" transform="rotate(-11.0633 118.442 85.2473)" fill="white" stroke="#2BBFFF"/>
<path d="M118.856 85.2636L129.149 91.0629L136.758 81.7633" stroke="#2BBFFF"/>
<path d="M120.715 97.4468L125.914 89.7202M138.811 93.9085L131.085 88.7093" stroke="#2BBFFF"/>
</g>
<g filter="url(#filter4_f_28_273)">
<rect x="147.153" y="23.6917" width="18.7051" height="12.8468" transform="rotate(33.0079 147.153 23.6917)" fill="white" stroke="#2BBFFF"/>
<path d="M147.291 23.5397L150.783 35.3056L163.183 33.8629" stroke="#2BBFFF"/>
<path d="M139.885 34.1766L149.329 32.1707M155.914 44.5889L153.908 35.1456" stroke="#2BBFFF"/>
</g>
<g filter="url(#filter5_f_28_273)">
<rect x="120.223" y="65.3898" width="14.3901" height="9.81468" transform="rotate(2.87594 120.223 65.3898)" fill="white" stroke="#2BBFFF"/>
<path d="M120.828 66.2159L126.897 71.9422L133.695 66.8622" stroke="#2BBFFF"/>
<path d="M120.553 74.3854L125.177 70.2036M132.882 75.0048L128.7 70.3805" stroke="#2BBFFF"/>
</g>
</g>
<defs>
<filter id="filter0_d_28_273" x="95" y="19" width="81" height="91.442" filterUnits="userSpaceOnUse" color-interpolation-filters="sRGB">
<feFlood flood-opacity="0" result="BackgroundImageFix"/>
<feColorMatrix in="SourceAlpha" type="matrix" values="0 0 0 0 0 0 0 0 0 0 0 0 0 0 0 0 0 0 127 0" result="hardAlpha"/>
<feOffset dy="4"/>
<feGaussianBlur stdDeviation="4"/>
<feComposite in2="hardAlpha" operator="out"/>
<feColorMatrix type="matrix" values="0 0 0 0 0.167643 0 0 0 0 0.750293 0 0 0 0 1 0 0 0 0.8 0"/>
<feBlend mode="normal" in2="BackgroundImageFix" result="effect1_dropShadow_28_273"/>
<feBlend mode="normal" in="SourceGraphic" in2="effect1_dropShadow_28_273" result="shape"/>
</filter>
<filter id="filter1_f_28_273" x="102.5" y="30.603" width="37.4074" height="30.9653" filterUnits="userSpaceOnUse" color-interpolation-filters="sRGB">
<feFlood flood-opacity="0" result="BackgroundImageFix"/>
<feBlend mode="normal" in="SourceGraphic" in2="BackgroundImageFix" result="shape"/>
<feGaussianBlur stdDeviation="0.25" result="effect1_foregroundBlur_28_273"/>
</filter>
<filter id="filter2_f_28_273" x="137.613" y="50.8604" width="30.8871" height="26.4622" filterUnits="userSpaceOnUse" color-interpolation-filters="sRGB">
<feFlood flood-opacity="0" result="BackgroundImageFix"/>
<feBlend mode="normal" in="SourceGraphic" in2="BackgroundImageFix" result="shape"/>
<feGaussianBlur stdDeviation="0.25" result="effect1_foregroundBlur_28_273"/>
</filter>
<filter id="filter3_f_28_273" x="117.355" y="80.5713" width="22.996" height="18.3708" filterUnits="userSpaceOnUse" color-interpolation-filters="sRGB">
<feFlood flood-opacity="0" result="BackgroundImageFix"/>
<feBlend mode="normal" in="SourceGraphic" in2="BackgroundImageFix" result="shape"/>
<feGaussianBlur stdDeviation="0.25" result="effect1_foregroundBlur_28_273"/>
</filter>
<filter id="filter4_f_28_273" x="138.963" y="22.5" width="25.0677" height="23.3463" filterUnits="userSpaceOnUse" color-interpolation-filters="sRGB">
<feFlood flood-opacity="0" result="BackgroundImageFix"/>
<feBlend mode="normal" in="SourceGraphic" in2="BackgroundImageFix" result="shape"/>
<feGaussianBlur stdDeviation="0.25" result="effect1_foregroundBlur_28_273"/>
</filter>
<filter id="filter5_f_28_273" x="118.706" y="64.3654" width="16.9134" height="12.5732" filterUnits="userSpaceOnUse" color-interpolation-filters="sRGB">
<feFlood flood-opacity="0" result="BackgroundImageFix"/>
<feBlend mode="normal" in="SourceGraphic" in2="BackgroundImageFix" result="shape"/>
<feGaussianBlur stdDeviation="0.25" result="effect1_foregroundBlur_28_273"/>
</filter>
<linearGradient id="paint0_linear_28_273" x1="45.6842" y1="217.377" x2="234.5" y2="-109" gradientUnits="userSpaceOnUse">
<stop stop-color="white"/>
<stop offset="1" stop-color="#FE6A6A"/>
</linearGradient>
<linearGradient id="paint1_linear_28_273" x1="91" y1="135.5" x2="50" y2="345" gradientUnits="userSpaceOnUse">
<stop stop-color="white"/>
<stop offset="1" stop-color="#999999"/>
</linearGradient>
<radialGradient id="paint2_radial_28_273" cx="0" cy="0" r="1" gradientUnits="userSpaceOnUse" gradientTransform="translate(111 138.5) rotate(-7.10743) scale(202.053 259.386)">
<stop stop-color="#245EFF"/>
<stop offset="1" stop-color="#3A59B0"/>
</radialGradient>
<radialGradient id="paint3_radial_28_273" cx="0" cy="0" r="1" gradientUnits="userSpaceOnUse" gradientTransform="translate(111 138.5) rotate(-7.10743) scale(202.053 259.386)">
<stop stop-color="#245EFF"/>
<stop offset="1" stop-color="#3A59B0"/>
</radialGradient>
<radialGradient id="paint4_radial_28_273" cx="0" cy="0" r="1" gradientUnits="userSpaceOnUse" gradientTransform="translate(111 138.5) rotate(-7.10743) scale(202.053 259.386)">
<stop stop-color="#245EFF"/>
<stop offset="1" stop-color="#3A59B0"/>
</radialGradient>
</defs>
</svg>
