<svg width="32" height="32" viewBox="0 0 32 32" fill="none" xmlns="http://www.w3.org/2000/svg">
<circle cx="16" cy="16" r="16" fill="#CCCCCC"/>
<path d="M13.7083 24.226L13.375 21.5711C13.1944 21.5019 13.0243 21.4189 12.8646 21.3222C12.7049 21.2254 12.5486 21.1217 12.3958 21.011L9.91667 22.0481L7.625 18.1072L9.77083 16.4894C9.75694 16.3926 9.75 16.2993 9.75 16.2094V15.6494C9.75 15.5595 9.75694 15.4662 9.77083 15.3694L7.625 13.7515L9.91667 9.81068L12.3958 10.8477C12.5486 10.7371 12.7083 10.6334 12.875 10.5366C13.0417 10.4398 13.2083 10.3569 13.375 10.2877L13.7083 7.63283H18.2917L18.625 10.2877C18.8056 10.3569 18.9757 10.4398 19.1354 10.5366C19.2951 10.6334 19.4514 10.7371 19.6042 10.8477L22.0833 9.81068L24.375 13.7515L22.2292 15.3694C22.2431 15.4662 22.25 15.5595 22.25 15.6494V16.2094C22.25 16.2993 22.2361 16.3926 22.2083 16.4894L24.3542 18.1072L22.0625 22.0481L19.6042 21.011C19.4514 21.1217 19.2917 21.2254 19.125 21.3222C18.9583 21.4189 18.7917 21.5019 18.625 21.5711L18.2917 24.226H13.7083ZM16.0417 18.8332C16.8472 18.8332 17.5347 18.5497 18.1042 17.9828C18.6736 17.4159 18.9583 16.7314 18.9583 15.9294C18.9583 15.1274 18.6736 14.4429 18.1042 13.876C17.5347 13.3091 16.8472 13.0256 16.0417 13.0256C15.2222 13.0256 14.5313 13.3091 13.9688 13.876C13.4063 14.4429 13.125 15.1274 13.125 15.9294C13.125 16.7314 13.4063 17.4159 13.9688 17.9828C14.5313 18.5497 15.2222 18.8332 16.0417 18.8332Z" fill="white"/>
</svg>
