<svg width="14" height="14" viewBox="0 0 14 14" fill="none" xmlns="http://www.w3.org/2000/svg">
<path d="M5.39585 12.8333L5.16251 10.9667C5.03612 10.9181 4.91703 10.8597 4.80522 10.7917C4.69341 10.7236 4.58404 10.6507 4.4771 10.5729L2.74168 11.3021L1.13751 8.53125L2.6396 7.39375C2.62987 7.3257 2.62501 7.26007 2.62501 7.19688V6.80313C2.62501 6.73994 2.62987 6.67431 2.6396 6.60625L1.13751 5.46875L2.74168 2.69792L4.4771 3.42709C4.58404 3.34931 4.69585 3.27639 4.81251 3.20834C4.92918 3.14028 5.04585 3.08195 5.16251 3.03334L5.39585 1.16667H8.60418L8.83751 3.03334C8.9639 3.08195 9.083 3.14028 9.1948 3.20834C9.30661 3.27639 9.41598 3.34931 9.52293 3.42709L11.2583 2.69792L12.8625 5.46875L11.3604 6.60625C11.3702 6.67431 11.375 6.73994 11.375 6.80313V7.19688C11.375 7.26007 11.3653 7.3257 11.3458 7.39375L12.8479 8.53125L11.2438 11.3021L9.52293 10.5729C9.41598 10.6507 9.30418 10.7236 9.18751 10.7917C9.07085 10.8597 8.95418 10.9181 8.83751 10.9667L8.60418 12.8333H5.39585ZM7.02918 9.04167C7.59307 9.04167 8.07432 8.84237 8.47293 8.44376C8.87154 8.04514 9.07085 7.56389 9.07085 7C9.07085 6.43612 8.87154 5.95487 8.47293 5.55625C8.07432 5.15764 7.59307 4.95834 7.02918 4.95834C6.45557 4.95834 5.97189 5.15764 5.57814 5.55625C5.18439 5.95487 4.98751 6.43612 4.98751 7C4.98751 7.56389 5.18439 8.04514 5.57814 8.44376C5.97189 8.84237 6.45557 9.04167 7.02918 9.04167Z" fill="#CCCCCC"/>
</svg>
